<svg version="1.1" id="Layer_1" xmlns="http://www.w3.org/2000/svg" xmlns:xlink="http://www.w3.org/1999/xlink" x="0px" y="0px"
	 width="100%" viewBox="0 0 500 500" enable-background="new 0 0 500 500" xml:space="preserve">
<path fill="#FFFFFF" opacity="1.000000" stroke="none" 
	d="
M237.000000,501.000000 
	C158.000015,501.000000 79.500038,501.000000 1.000042,501.000000 
	C1.000028,334.333405 1.000028,167.666779 1.000014,1.000132 
	C167.666565,1.000088 334.333130,1.000088 500.999756,1.000044 
	C500.999847,167.666519 500.999847,334.333038 500.999939,500.999786 
	C413.166656,501.000000 325.333344,501.000000 237.000000,501.000000 
M247.499969,166.286423 
	C237.014084,166.286514 226.527740,166.350296 216.042435,166.273148 
	C195.656601,166.123138 184.614639,181.482864 185.966965,196.564224 
	C186.499985,202.508514 186.007370,208.540817 186.068863,214.532135 
	C186.223785,229.624924 196.555466,240.923813 211.494904,241.948441 
	C215.054932,242.192596 216.006989,243.447525 215.888977,246.771255 
	C215.679993,252.657715 215.830383,258.556946 215.830383,265.276184 
	C217.151581,264.323059 217.706375,264.022766 218.137527,263.597229 
	C232.996262,248.931778 251.020111,242.538757 271.726685,241.800720 
	C284.968140,241.328766 295.532715,229.201935 295.880585,215.701340 
	C296.069183,208.382690 296.060577,201.052155 295.894318,193.732574 
	C295.568024,179.369446 285.679657,168.326492 271.413910,166.937088 
	C263.826752,166.198135 256.141083,166.470856 247.499969,166.286423 
M249.500061,139.995163 
	C246.168274,139.995163 242.793320,139.653610 239.513885,140.067978 
	C233.164719,140.870239 226.450745,141.060989 220.653061,143.400894 
	C212.628281,146.639618 208.008987,153.478531 206.687515,162.460068 
	C210.116745,162.287430 212.922806,162.030258 215.729416,162.023865 
	C232.554977,161.985550 249.380722,161.979462 266.206329,162.011322 
	C287.110382,162.050919 300.090820,175.073761 300.212128,196.091110 
	C300.243530,201.531189 300.216858,206.971619 300.216858,212.546646 
	C309.010132,209.593811 315.447479,200.026138 315.810547,189.363144 
	C316.048492,182.374222 315.991577,175.369400 315.867981,168.375198 
	C315.568329,151.414948 304.025604,140.094162 286.983307,140.007553 
	C274.822510,139.945740 262.661133,139.995285 249.500061,139.995163 
M236.048096,296.763092 
	C237.218567,295.091339 238.389038,293.419556 239.135681,292.353119 
	C245.563995,295.958069 242.971725,301.998810 243.964523,307.112579 
	C244.167984,308.160614 244.875015,309.675781 245.681656,309.932220 
	C247.801254,310.606079 250.106552,310.889313 252.330627,310.855255 
	C252.711624,310.849426 253.056870,308.511841 253.448502,307.147400 
	C247.846146,306.712006 247.650009,306.195160 248.717484,295.998932 
	C250.144196,295.671631 251.643204,295.327728 253.142212,294.983856 
	C253.343384,294.482147 253.544556,293.980408 253.745728,293.478699 
	C252.071716,292.455688 250.397705,291.432648 248.470184,290.254730 
	C248.358215,288.449677 248.219864,286.219635 248.081528,283.989594 
	C247.649216,283.832489 247.216904,283.675415 246.784607,283.518311 
	C245.774994,285.341522 244.931839,287.288116 243.701462,288.947601 
	C242.769684,290.204376 240.865295,292.241089 240.213196,291.968719 
	C234.560333,289.607697 232.158585,293.317627 229.911514,297.562897 
	C227.196808,294.564636 226.240799,289.406403 219.938568,292.334320 
	C227.832474,298.336975 226.463989,304.539734 219.966415,310.376617 
	C225.986084,312.925568 227.240265,308.234528 229.583405,305.127289 
	C232.477386,307.450836 233.236191,313.466034 239.157913,310.278168 
	C237.143585,307.273438 235.141434,304.286865 233.057159,301.177826 
	C233.952621,299.856049 234.781586,298.632416 236.048096,296.763092 
M190.303162,310.745331 
	C191.899567,310.843506 193.495972,310.941681 195.051758,311.037354 
	C195.051758,301.585480 195.051758,292.639008 195.051758,283.562195 
	C193.533508,283.562195 192.275665,283.562195 190.339966,283.562195 
	C190.339966,289.269501 190.339966,294.746094 190.339966,300.222717 
	C186.486282,295.788849 183.575226,291.217682 180.954941,286.485504 
	C179.334854,283.559631 177.390915,282.418121 174.265594,283.821594 
	C174.265594,292.936096 174.265594,301.869629 174.265594,311.088745 
	C175.937469,310.954529 177.327805,310.842926 179.221741,310.690887 
	C179.221741,304.725372 179.221741,299.096710 179.221741,292.433441 
	C183.176208,298.999420 186.515976,304.544739 190.303162,310.745331 
M330.811798,309.985565 
	C328.430420,306.417725 326.049011,302.849854 323.570984,299.137207 
	C325.773041,296.695007 327.818848,294.426086 329.923737,292.091675 
	C323.749969,288.924286 322.246216,296.035980 317.387878,297.349884 
	C317.387878,292.439789 317.387878,288.080017 317.387878,283.306274 
	C315.336639,283.444611 313.955566,283.537750 312.542725,283.633057 
	C312.542725,292.957336 312.542725,301.855591 312.542725,311.057220 
	C314.223816,310.945038 315.610016,310.852570 316.230042,310.811188 
	C317.290955,307.617371 318.152374,305.023987 319.112366,302.134003 
	C323.842377,305.188904 323.556976,313.005463 330.811798,309.985565 
M281.003235,296.390289 
	C282.393219,296.300201 283.926758,296.557556 285.145813,296.053833 
	C288.589355,294.630920 289.877472,295.135406 290.996918,298.974579 
	C288.677582,299.198059 286.369934,299.322083 284.094940,299.663483 
	C280.972412,300.132111 278.775177,301.646545 278.909698,305.192352 
	C279.043945,308.730469 281.064606,310.934204 284.451691,311.051483 
	C288.323761,311.185486 292.220581,310.605835 296.095062,310.337067 
	C296.095062,306.190033 296.322998,302.014252 296.032593,297.874817 
	C295.726685,293.514679 292.643829,291.590088 288.650604,291.105774 
	C284.655487,290.621277 281.712128,292.470367 281.003235,296.390289 
M200.571396,304.631683 
	C204.150024,312.458588 212.131592,313.878357 218.389999,306.452820 
	C215.819092,306.452820 214.142731,306.121216 212.663147,306.519867 
	C209.277954,307.431915 206.858612,306.984375 205.013947,302.719360 
	C210.156693,302.719360 214.258759,302.719360 218.569992,302.719360 
	C218.710495,297.546967 217.866959,293.324982 212.661728,291.599182 
	C208.447678,290.202057 204.361816,291.064392 202.167404,294.921387 
	C200.730484,297.446991 200.861923,300.864899 200.571396,304.631683 
M268.865967,289.693848 
	C271.511932,288.800293 274.157898,287.906738 277.303467,286.844482 
	C277.222839,286.047943 277.086304,284.699310 276.966858,283.519531 
	C269.477173,283.519531 262.523407,283.519531 255.148819,283.519531 
	C255.227921,285.080750 255.295258,286.409698 255.380081,288.084045 
	C258.440460,288.084045 261.044678,288.084045 263.948059,288.084045 
	C263.948059,295.881439 263.948059,303.309814 263.948059,310.781952 
	C265.680969,310.781952 267.097534,310.781952 268.859192,310.781952 
	C268.859192,303.911835 268.859192,297.284515 268.865967,289.693848 
M301.118408,300.415375 
	C301.118469,301.907990 301.099304,303.400940 301.121918,304.893188 
	C301.215851,311.095856 302.350525,311.957581 309.513702,310.499481 
	C302.833252,302.226929 307.728241,292.515228 305.461609,283.313141 
	C304.092468,283.428833 302.719910,283.544769 301.118408,283.680084 
	C301.118408,289.193634 301.118408,294.318085 301.118408,300.415375 
z"/>
<path fill="#A161FF" opacity="1.000000" stroke="none" 
	d="
M247.999924,166.286667 
	C256.141083,166.470856 263.826752,166.198135 271.413910,166.937088 
	C285.679657,168.326492 295.568024,179.369446 295.894318,193.732574 
	C296.060577,201.052155 296.069183,208.382690 295.880585,215.701340 
	C295.532715,229.201935 284.968140,241.328766 271.726685,241.800720 
	C251.020111,242.538757 232.996262,248.931778 218.137527,263.597229 
	C217.706375,264.022766 217.151581,264.323059 215.830383,265.276184 
	C215.830383,258.556946 215.679993,252.657715 215.888977,246.771255 
	C216.006989,243.447525 215.054932,242.192596 211.494904,241.948441 
	C196.555466,240.923813 186.223785,229.624924 186.068863,214.532135 
	C186.007370,208.540817 186.499985,202.508514 185.966965,196.564224 
	C184.614639,181.482864 195.656601,166.123138 216.042435,166.273148 
	C226.527740,166.350296 237.014084,166.286514 247.999924,166.286667 
z"/>
<path fill="#03E4E3" opacity="1.000000" stroke="none" 
	d="
M250.000046,139.995163 
	C262.661133,139.995285 274.822510,139.945740 286.983307,140.007553 
	C304.025604,140.094162 315.568329,151.414948 315.867981,168.375198 
	C315.991577,175.369400 316.048492,182.374222 315.810547,189.363144 
	C315.447479,200.026138 309.010132,209.593811 300.216858,212.546646 
	C300.216858,206.971619 300.243530,201.531189 300.212128,196.091110 
	C300.090820,175.073761 287.110382,162.050919 266.206329,162.011322 
	C249.380722,161.979462 232.554977,161.985550 215.729416,162.023865 
	C212.922806,162.030258 210.116745,162.287430 206.687515,162.460068 
	C208.008987,153.478531 212.628281,146.639618 220.653061,143.400894 
	C226.450745,141.060989 233.164719,140.870239 239.513885,140.067978 
	C242.793320,139.653610 246.168274,139.995163 250.000046,139.995163 
z"/>
<path fill="#15112D" opacity="1.000000" stroke="none" 
	d="
M235.829315,297.085938 
	C234.781586,298.632416 233.952621,299.856049 233.057159,301.177826 
	C235.141434,304.286865 237.143585,307.273438 239.157913,310.278168 
	C233.236191,313.466034 232.477386,307.450836 229.583405,305.127289 
	C227.240265,308.234528 225.986084,312.925568 219.966415,310.376617 
	C226.463989,304.539734 227.832474,298.336975 219.938568,292.334320 
	C226.240799,289.406403 227.196808,294.564636 229.911514,297.562897 
	C232.158585,293.317627 234.560333,289.607697 240.213196,291.968719 
	C240.865295,292.241089 242.769684,290.204376 243.701462,288.947601 
	C244.931839,287.288116 245.774994,285.341522 246.784607,283.518311 
	C247.216904,283.675415 247.649216,283.832489 248.081528,283.989594 
	C248.219864,286.219635 248.358215,288.449677 248.470184,290.254730 
	C250.397705,291.432648 252.071716,292.455688 253.745728,293.478699 
	C253.544556,293.980408 253.343384,294.482147 253.142212,294.983856 
	C251.643204,295.327728 250.144196,295.671631 248.717484,295.998932 
	C247.650009,306.195160 247.846146,306.712006 253.448502,307.147400 
	C253.056870,308.511841 252.711624,310.849426 252.330627,310.855255 
	C250.106552,310.889313 247.801254,310.606079 245.681656,309.932220 
	C244.875015,309.675781 244.167984,308.160614 243.964523,307.112579 
	C242.971725,301.998810 245.563995,295.958069 239.135681,292.353119 
	C238.389038,293.419556 237.218567,295.091339 235.829315,297.085938 
z"/>
<path fill="#15112D" opacity="1.000000" stroke="none" 
	d="
M190.079453,310.417694 
	C186.515976,304.544739 183.176208,298.999420 179.221741,292.433441 
	C179.221741,299.096710 179.221741,304.725372 179.221741,310.690887 
	C177.327805,310.842926 175.937469,310.954529 174.265594,311.088745 
	C174.265594,301.869629 174.265594,292.936096 174.265594,283.821594 
	C177.390915,282.418121 179.334854,283.559631 180.954941,286.485504 
	C183.575226,291.217682 186.486282,295.788849 190.339966,300.222717 
	C190.339966,294.746094 190.339966,289.269501 190.339966,283.562195 
	C192.275665,283.562195 193.533508,283.562195 195.051758,283.562195 
	C195.051758,292.639008 195.051758,301.585480 195.051758,311.037354 
	C193.495972,310.941681 191.899567,310.843506 190.079453,310.417694 
z"/>
<path fill="#15112D" opacity="1.000000" stroke="none" 
	d="
M330.793671,310.374481 
	C323.556976,313.005463 323.842377,305.188904 319.112366,302.134003 
	C318.152374,305.023987 317.290955,307.617371 316.230042,310.811188 
	C315.610016,310.852570 314.223816,310.945038 312.542725,311.057220 
	C312.542725,301.855591 312.542725,292.957336 312.542725,283.633057 
	C313.955566,283.537750 315.336639,283.444611 317.387878,283.306274 
	C317.387878,288.080017 317.387878,292.439789 317.387878,297.349884 
	C322.246216,296.035980 323.749969,288.924286 329.923737,292.091675 
	C327.818848,294.426086 325.773041,296.695007 323.570984,299.137207 
	C326.049011,302.849854 328.430420,306.417725 330.793671,310.374481 
z"/>
<path fill="#15112D" opacity="1.000000" stroke="none" 
	d="
M280.710785,296.173767 
	C281.712128,292.470367 284.655487,290.621277 288.650604,291.105774 
	C292.643829,291.590088 295.726685,293.514679 296.032593,297.874817 
	C296.322998,302.014252 296.095062,306.190033 296.095062,310.337067 
	C292.220581,310.605835 288.323761,311.185486 284.451691,311.051483 
	C281.064606,310.934204 279.043945,308.730469 278.909698,305.192352 
	C278.775177,301.646545 280.972412,300.132111 284.094940,299.663483 
	C286.369934,299.322083 288.677582,299.198059 290.996918,298.974579 
	C289.877472,295.135406 288.589355,294.630920 285.145813,296.053833 
	C283.926758,296.557556 282.393219,296.300201 280.710785,296.173767 
M291.131104,304.131104 
	C288.887207,304.030121 286.643280,303.929138 284.399384,303.828156 
	C284.423859,304.712708 284.448334,305.597260 284.472809,306.481812 
	C286.493469,306.093048 288.515228,305.709625 290.532135,305.302216 
	C290.654358,305.277527 290.737976,305.061676 291.131104,304.131104 
z"/>
<path fill="#15112D" opacity="1.000000" stroke="none" 
	d="
M200.431152,304.257446 
	C200.861923,300.864899 200.730484,297.446991 202.167404,294.921387 
	C204.361816,291.064392 208.447678,290.202057 212.661728,291.599182 
	C217.866959,293.324982 218.710495,297.546967 218.569992,302.719360 
	C214.258759,302.719360 210.156693,302.719360 205.013947,302.719360 
	C206.858612,306.984375 209.277954,307.431915 212.663147,306.519867 
	C214.142731,306.121216 215.819092,306.452820 218.389999,306.452820 
	C212.131592,313.878357 204.150024,312.458588 200.431152,304.257446 
M205.703339,298.035217 
	C208.262192,298.553772 210.821045,299.072296 214.076767,299.732086 
	C211.294678,294.310455 210.034225,294.071136 205.703339,298.035217 
z"/>
<path fill="#15112D" opacity="1.000000" stroke="none" 
	d="
M268.862579,290.175507 
	C268.859192,297.284515 268.859192,303.911835 268.859192,310.781952 
	C267.097534,310.781952 265.680969,310.781952 263.948059,310.781952 
	C263.948059,303.309814 263.948059,295.881439 263.948059,288.084045 
	C261.044678,288.084045 258.440460,288.084045 255.380081,288.084045 
	C255.295258,286.409698 255.227921,285.080750 255.148819,283.519531 
	C262.523407,283.519531 269.477173,283.519531 276.966858,283.519531 
	C277.086304,284.699310 277.222839,286.047943 277.303467,286.844482 
	C274.157898,287.906738 271.511932,288.800293 268.862579,290.175507 
z"/>
<path fill="#15112D" opacity="1.000000" stroke="none" 
	d="
M301.118408,299.928955 
	C301.118408,294.318085 301.118408,289.193634 301.118408,283.680084 
	C302.719910,283.544769 304.092468,283.428833 305.461609,283.313141 
	C307.728241,292.515228 302.833252,302.226929 309.513702,310.499481 
	C302.350525,311.957581 301.215851,311.095856 301.121918,304.893188 
	C301.099304,303.400940 301.118469,301.907990 301.118408,299.928955 
z"/>
<path fill="#FFFFFF" opacity="1.000000" stroke="none" 
	d="
M290.985352,304.532959 
	C290.737976,305.061676 290.654358,305.277527 290.532135,305.302216 
	C288.515228,305.709625 286.493469,306.093048 284.472809,306.481812 
	C284.448334,305.597260 284.423859,304.712708 284.399384,303.828125 
	C286.643280,303.929138 288.887207,304.030121 290.985352,304.532959 
z"/>
<path fill="#FFFFFF" opacity="1.000000" stroke="none" 
	d="
M205.848190,297.632233 
	C210.034225,294.071136 211.294678,294.310455 214.076767,299.732086 
	C210.821045,299.072296 208.262192,298.553772 205.848190,297.632233 
z"/>
</svg>